<mxfile host="Electron" agent="Mozilla/5.0 (Windows NT 10.0; Win64; x64) AppleWebKit/537.36 (KHTML, like Gecko) draw.io/24.7.17 Chrome/128.0.6613.36 Electron/32.0.1 Safari/537.36" version="24.7.17">
  <diagram name="Page-1" id="O0MgYBnPyl34DQat1cmg">
    <mxGraphModel dx="880" dy="524" grid="1" gridSize="10" guides="1" tooltips="1" connect="1" arrows="1" fold="1" page="1" pageScale="1" pageWidth="850" pageHeight="1100" math="0" shadow="0">
      <root>
        <mxCell id="0" />
        <mxCell id="1" parent="0" />
        <mxCell id="WG34DSdwMv1vJ40IGeGQ-3" style="edgeStyle=orthogonalEdgeStyle;rounded=0;orthogonalLoop=1;jettySize=auto;html=1;exitX=0.5;exitY=1;exitDx=0;exitDy=0;entryX=0.5;entryY=0;entryDx=0;entryDy=0;" edge="1" parent="1" source="WG34DSdwMv1vJ40IGeGQ-1" target="WG34DSdwMv1vJ40IGeGQ-2">
          <mxGeometry relative="1" as="geometry" />
        </mxCell>
        <mxCell id="WG34DSdwMv1vJ40IGeGQ-1" value="BĐ" style="ellipse;whiteSpace=wrap;html=1;" vertex="1" parent="1">
          <mxGeometry x="80" y="40" width="120" height="80" as="geometry" />
        </mxCell>
        <mxCell id="WG34DSdwMv1vJ40IGeGQ-5" style="edgeStyle=orthogonalEdgeStyle;rounded=0;orthogonalLoop=1;jettySize=auto;html=1;exitX=0.5;exitY=1;exitDx=0;exitDy=0;entryX=0.5;entryY=0;entryDx=0;entryDy=0;" edge="1" parent="1" source="WG34DSdwMv1vJ40IGeGQ-2" target="WG34DSdwMv1vJ40IGeGQ-4">
          <mxGeometry relative="1" as="geometry" />
        </mxCell>
        <mxCell id="WG34DSdwMv1vJ40IGeGQ-2" value="x, a, b, c" style="shape=parallelogram;perimeter=parallelogramPerimeter;whiteSpace=wrap;html=1;fixedSize=1;" vertex="1" parent="1">
          <mxGeometry x="80" y="160" width="120" height="60" as="geometry" />
        </mxCell>
        <mxCell id="WG34DSdwMv1vJ40IGeGQ-7" style="edgeStyle=orthogonalEdgeStyle;rounded=0;orthogonalLoop=1;jettySize=auto;html=1;exitX=0.5;exitY=1;exitDx=0;exitDy=0;entryX=0.5;entryY=0;entryDx=0;entryDy=0;" edge="1" parent="1" source="WG34DSdwMv1vJ40IGeGQ-4" target="WG34DSdwMv1vJ40IGeGQ-6">
          <mxGeometry relative="1" as="geometry" />
        </mxCell>
        <mxCell id="WG34DSdwMv1vJ40IGeGQ-4" value="y1 = x ++ &amp;amp; x&lt;div&gt;y2 = ++ x &amp;amp; x &amp;lt;&amp;lt; 3&lt;/div&gt;&lt;div&gt;z1 = sqrt(x * sqrt(x - 2))&lt;/div&gt;&lt;div&gt;z2 = sqrt(s * (s - a) * (s - b) * (s - c))&lt;/div&gt;&lt;div&gt;s = (a + b + c) / 2&lt;/div&gt;" style="rounded=0;whiteSpace=wrap;html=1;" vertex="1" parent="1">
          <mxGeometry x="35" y="260" width="210" height="90" as="geometry" />
        </mxCell>
        <mxCell id="WG34DSdwMv1vJ40IGeGQ-9" style="edgeStyle=orthogonalEdgeStyle;rounded=0;orthogonalLoop=1;jettySize=auto;html=1;exitX=0.5;exitY=1;exitDx=0;exitDy=0;entryX=0.5;entryY=0;entryDx=0;entryDy=0;" edge="1" parent="1" source="WG34DSdwMv1vJ40IGeGQ-6" target="WG34DSdwMv1vJ40IGeGQ-8">
          <mxGeometry relative="1" as="geometry" />
        </mxCell>
        <mxCell id="WG34DSdwMv1vJ40IGeGQ-6" value="y1, y2, z1, z2" style="shape=parallelogram;perimeter=parallelogramPerimeter;whiteSpace=wrap;html=1;fixedSize=1;" vertex="1" parent="1">
          <mxGeometry x="80" y="390" width="120" height="60" as="geometry" />
        </mxCell>
        <mxCell id="WG34DSdwMv1vJ40IGeGQ-8" value="KT" style="ellipse;whiteSpace=wrap;html=1;" vertex="1" parent="1">
          <mxGeometry x="80" y="490" width="120" height="80" as="geometry" />
        </mxCell>
        <mxCell id="WG34DSdwMv1vJ40IGeGQ-13" value="x = 8&lt;div&gt;a = 8&lt;/div&gt;&lt;div&gt;b = 9&lt;/div&gt;&lt;div&gt;c = 6&lt;/div&gt;" style="text;html=1;align=center;verticalAlign=middle;whiteSpace=wrap;rounded=0;" vertex="1" parent="1">
          <mxGeometry x="245" y="260" width="75" height="90" as="geometry" />
        </mxCell>
      </root>
    </mxGraphModel>
  </diagram>
</mxfile>
